<?xml version="1.0" standalone="no"?>
<!DOCTYPE svg PUBLIC "-//W3C//DTD SVG 20010904//EN"
 "http://www.w3.org/TR/2001/REC-SVG-20010904/DTD/svg10.dtd">
<svg version="1.0" xmlns="http://www.w3.org/2000/svg"
 width="2048.000000pt" height="2048.000000pt" viewBox="0 0 2048.000000 2048.000000"
 preserveAspectRatio="xMidYMid meet">
<metadata>
Created by potrace 1.11, written by Peter Selinger 2001-2013
</metadata>
<g transform="translate(0.000000,2048.000000) scale(0.100000,-0.100000)"
fill="#000000" stroke="none">
<path d="M14601 18980 c-62 -33 -155 -84 -205 -114 -50 -29 -278 -160 -505
-291 -228 -131 -423 -247 -433 -259 -25 -30 -20 -94 21 -246 11 -41 34 -114
50 -161 36 -104 218 -560 257 -644 15 -33 28 -62 29 -65 1 -3 8 -21 17 -40 8
-19 39 -89 67 -154 l51 -119 -23 -31 c-54 -71 -152 -234 -213 -356 -36 -71
-71 -131 -77 -131 -7 -1 -23 -2 -37 -4 -14 -1 -47 -4 -75 -8 -27 -4 -75 -9
-105 -12 -96 -10 -154 -16 -180 -20 -27 -4 -116 -15 -165 -21 -60 -6 -123 -15
-146 -19 -13 -3 -44 -7 -69 -10 -25 -4 -67 -10 -95 -15 -27 -5 -63 -12 -80
-15 -49 -8 -85 -15 -183 -37 -52 -11 -99 -21 -105 -22 -53 -9 -182 -63 -207
-86 l-30 -28 0 -716 0 -715 34 -26 c54 -41 216 -90 426 -129 79 -14 107 -19
178 -30 43 -8 243 -36 282 -41 35 -4 126 -15 165 -21 31 -4 119 -13 178 -19
45 -5 82 -9 172 -20 11 -1 28 -3 37 -4 11 -1 31 -29 55 -78 52 -109 135 -252
204 -355 l59 -87 -51 -118 c-28 -65 -61 -138 -72 -163 -12 -25 -21 -47 -22
-50 0 -3 -11 -27 -24 -55 -12 -27 -68 -162 -122 -299 -189 -470 -247 -685
-201 -742 14 -16 391 -243 567 -340 22 -12 121 -69 220 -126 99 -58 216 -124
260 -149 44 -24 88 -48 97 -54 98 -56 119 -64 146 -54 25 10 207 187 262 255
14 17 78 96 143 175 141 171 114 138 267 334 148 190 153 197 225 297 l55 78
83 -7 c104 -9 339 -9 438 0 l77 7 108 -148 c60 -81 116 -156 126 -167 9 -11
62 -78 118 -150 126 -161 158 -201 191 -240 14 -16 34 -41 45 -54 111 -141
337 -374 373 -386 15 -4 48 9 113 46 51 29 111 62 133 74 44 24 124 69 167 94
60 35 324 188 367 212 25 14 77 44 115 67 37 23 69 42 71 42 3 0 252 146 292
171 59 37 53 123 -27 374 -28 86 -175 472 -215 560 -7 17 -36 84 -65 150 -28
66 -61 140 -72 165 -12 25 -36 80 -54 123 l-34 78 59 87 c76 113 165 268 207
360 18 39 39 72 46 73 16 1 46 4 123 13 57 7 84 10 191 21 25 2 63 7 83 9 20
3 74 10 121 16 47 6 103 13 125 16 22 3 83 12 135 20 123 20 137 22 185 29
177 27 429 100 482 141 l33 25 0 715 0 716 -30 28 c-49 46 -309 121 -504 146
-22 3 -43 7 -46 9 -3 2 -33 7 -65 10 -33 4 -62 9 -65 10 -3 2 -33 6 -65 10
-33 3 -67 8 -75 10 -8 2 -42 7 -75 10 -33 4 -85 10 -115 15 -30 5 -84 12 -120
15 -36 3 -78 8 -95 10 -16 2 -61 7 -100 11 -38 4 -79 8 -90 10 -11 1 -25 3
-32 3 -7 1 -35 49 -64 107 -53 109 -155 283 -213 364 -36 50 -36 51 -14 100
311 699 470 1125 484 1301 3 45 0 59 -16 76 -19 21 -149 101 -268 165 -31 17
-64 37 -73 44 -8 8 -19 14 -22 14 -4 0 -36 18 -72 40 -36 22 -68 40 -71 40 -3
0 -30 16 -60 35 -30 19 -56 35 -58 35 -3 0 -50 27 -106 60 -56 33 -104 60
-106 60 -2 0 -21 11 -42 23 -20 13 -64 39 -97 57 -33 18 -76 42 -95 53 -19 11
-70 37 -113 59 -73 37 -81 39 -109 27 -17 -7 -65 -49 -107 -93 -42 -44 -85
-90 -96 -101 -81 -85 -368 -430 -457 -550 -4 -5 -23 -29 -40 -51 -18 -23 -81
-107 -141 -187 l-107 -147 -83 7 c-104 9 -339 9 -439 0 l-76 -7 -76 104 c-91
125 -173 231 -323 416 -38 47 -80 101 -95 120 -15 19 -37 47 -50 61 -13 15
-41 48 -63 75 -169 204 -332 365 -370 364 -5 0 -61 -27 -124 -60z m1585 -2352
c5 -3 32 -9 59 -12 63 -9 210 -57 294 -97 172 -83 343 -224 473 -389 32 -41
63 -80 68 -87 5 -6 30 -51 56 -99 101 -191 143 -373 139 -609 -2 -146 -13
-222 -51 -351 -91 -316 -352 -623 -659 -773 -102 -50 -126 -59 -230 -87 -156
-42 -396 -52 -560 -25 -462 77 -871 441 -1001 891 -14 47 -27 101 -30 120 -2
19 -7 46 -11 60 -9 39 -12 304 -3 352 5 24 11 63 15 87 9 65 52 195 90 277 66
141 151 257 276 381 200 195 430 316 684 357 77 12 372 15 391 4z"/>
<path d="M6003 16620 c-101 -36 -160 -105 -192 -225 -38 -144 -114 -552 -135
-730 -3 -27 -8 -59 -10 -70 -2 -11 -7 -49 -11 -85 -4 -36 -8 -67 -10 -70 -1
-3 -6 -41 -10 -84 -4 -43 -8 -86 -10 -95 -1 -9 -6 -47 -10 -86 -4 -38 -9 -79
-11 -90 -2 -11 -7 -55 -10 -97 -10 -134 -1 -124 -154 -178 -205 -72 -436 -169
-581 -246 l-47 -24 -49 37 c-72 56 -152 117 -272 213 -59 47 -123 96 -141 110
-52 39 -383 299 -405 318 -11 10 -36 28 -55 42 -19 13 -37 27 -40 30 -24 29
-217 168 -260 188 -80 38 -175 37 -250 -1 -54 -28 -176 -106 -215 -139 -11 -9
-54 -44 -95 -78 -191 -159 -693 -655 -932 -921 -114 -128 -153 -176 -258 -310
-49 -63 -64 -109 -64 -194 0 -99 27 -160 116 -267 67 -82 69 -84 158 -193 35
-44 67 -82 70 -85 3 -3 28 -34 55 -70 27 -36 52 -67 55 -70 19 -16 270 -342
413 -537 l97 -132 -69 -143 c-81 -169 -156 -345 -204 -483 -19 -55 -38 -107
-42 -117 -7 -17 -34 -24 -160 -43 -22 -3 -67 -10 -100 -15 -33 -5 -80 -12
-105 -15 -25 -3 -52 -8 -60 -10 -8 -2 -37 -6 -65 -10 -73 -9 -119 -16 -126
-21 -3 -1 -34 -6 -70 -10 -35 -3 -67 -8 -70 -10 -3 -1 -28 -6 -55 -9 -27 -3
-71 -10 -99 -15 -27 -5 -68 -12 -90 -15 -22 -3 -80 -12 -130 -20 -89 -13 -129
-20 -202 -31 -21 -3 -49 -7 -63 -9 -14 -3 -61 -10 -105 -16 -84 -12 -133 -32
-175 -71 -43 -39 -88 -117 -100 -172 -7 -35 -10 -358 -8 -1026 l3 -975 24 -45
c13 -25 45 -66 72 -91 49 -47 93 -65 184 -75 22 -3 47 -7 55 -9 8 -3 47 -9 85
-15 39 -5 86 -13 105 -16 19 -3 103 -16 185 -29 83 -14 168 -27 190 -30 36 -5
90 -14 121 -20 6 -2 37 -6 69 -10 33 -3 62 -8 65 -10 3 -1 28 -6 55 -9 42 -6
221 -34 315 -50 14 -3 61 -10 105 -16 107 -16 117 -18 126 -27 3 -5 16 -39 29
-78 50 -160 150 -394 261 -617 l59 -118 -135 -177 c-151 -199 -184 -242 -303
-393 -46 -58 -94 -118 -107 -135 -13 -16 -63 -80 -112 -142 -151 -193 -240
-316 -264 -368 -35 -74 -32 -145 7 -223 117 -226 536 -679 1240 -1339 176
-165 181 -170 244 -201 69 -34 170 -39 240 -13 36 14 510 361 775 568 17 13
35 27 40 31 6 4 75 56 155 116 80 60 179 135 221 168 l76 58 134 -64 c226
-107 341 -154 528 -216 92 -30 95 -33 104 -115 3 -27 11 -77 17 -110 5 -33 13
-80 16 -105 3 -25 7 -56 10 -70 3 -21 23 -152 40 -270 3 -19 7 -46 9 -60 6
-37 23 -149 30 -195 3 -22 10 -67 15 -100 5 -33 12 -78 15 -100 3 -22 8 -55
11 -73 3 -17 7 -49 10 -69 2 -20 7 -50 10 -67 3 -17 8 -47 10 -66 2 -19 6 -46
9 -60 3 -14 7 -47 11 -75 3 -27 14 -70 25 -95 26 -59 107 -134 172 -159 51
-20 74 -20 1052 -18 l1000 2 46 22 c102 47 152 129 189 308 7 33 16 74 21 90
12 42 71 395 84 500 3 28 9 64 12 80 3 17 7 41 8 55 3 30 15 125 20 160 2 14
6 50 10 80 3 30 8 66 10 80 2 14 7 57 11 95 3 39 8 77 9 86 2 9 7 52 11 95 6
68 9 92 13 125 1 4 63 28 139 53 75 26 151 54 169 62 17 8 34 14 38 14 12 0
243 101 333 146 84 41 88 42 112 27 24 -16 53 -38 296 -230 61 -49 126 -99
144 -113 52 -39 383 -299 405 -318 11 -10 36 -28 55 -42 19 -13 37 -27 40 -30
9 -9 144 -115 180 -140 92 -65 182 -90 258 -72 113 26 319 177 571 417 104
100 486 484 556 560 20 22 62 67 93 100 32 33 89 96 127 139 39 44 75 84 80
90 33 34 175 215 186 236 20 37 23 58 23 135 -1 88 -31 155 -116 257 -67 82
-69 84 -158 193 -35 44 -67 82 -70 85 -3 3 -28 34 -55 70 -27 36 -52 67 -55
70 -10 8 -181 228 -288 370 -56 74 -105 140 -110 145 -4 6 -31 42 -60 82 l-52
72 58 118 c31 65 68 143 81 173 63 147 102 244 134 335 19 55 38 107 42 117 7
17 34 24 160 43 22 3 67 10 100 15 33 5 80 12 105 15 25 3 52 8 60 10 8 2 38
6 65 10 73 9 119 16 126 21 3 1 34 6 70 10 35 3 67 8 70 10 3 1 28 6 55 9 27
3 72 10 99 15 28 5 68 12 90 15 22 3 81 12 130 20 50 7 110 17 135 20 163 23
301 48 336 61 54 19 118 84 152 154 l27 55 0 1005 0 1005 -23 42 c-63 119
-142 167 -307 187 -27 4 -76 11 -107 17 -32 5 -74 12 -95 14 -21 2 -49 7 -63
10 -14 2 -45 7 -70 10 -25 3 -52 7 -60 10 -8 2 -37 6 -65 10 -27 3 -75 10
-105 15 -30 5 -75 12 -100 15 -25 3 -83 12 -130 20 -47 7 -105 16 -130 19 -25
3 -133 19 -240 36 -107 16 -208 32 -224 34 -37 6 -40 10 -61 76 -43 136 -154
404 -279 673 l-36 78 107 147 c59 81 140 190 181 242 40 52 84 109 97 125 13
17 82 107 154 200 73 94 137 177 144 185 234 288 279 379 243 488 -26 78 -163
271 -306 432 -205 230 -599 624 -964 965 -174 163 -174 162 -236 193 -46 23
-68 27 -135 27 -58 0 -91 -6 -120 -19 -31 -15 -556 -403 -760 -563 -16 -13
-34 -27 -40 -31 -5 -4 -75 -56 -155 -116 -80 -60 -179 -135 -221 -168 l-76
-58 -134 64 c-211 100 -431 189 -563 227 -54 16 -60 25 -70 109 -3 30 -11 80
-16 110 -9 53 -13 84 -25 168 -3 20 -8 48 -10 62 -3 14 -7 43 -10 65 -6 40
-15 102 -21 140 -1 11 -5 38 -9 60 -3 22 -10 67 -15 100 -5 33 -11 78 -15 100
-3 22 -10 67 -15 100 -5 33 -12 78 -15 100 -3 22 -8 55 -11 73 -3 17 -7 49
-10 69 -2 20 -7 50 -10 67 -3 17 -8 47 -10 66 -2 19 -6 46 -9 60 -3 14 -7 48
-11 75 -8 74 -39 134 -95 187 -99 93 -18 87 -1139 87 -940 0 -987 -1 -1037
-19z m1322 -3833 c11 -3 49 -8 85 -12 55 -6 95 -13 222 -40 492 -105 953 -385
1338 -815 56 -62 95 -111 188 -235 11 -15 79 -121 107 -167 81 -133 215 -448
240 -564 2 -10 13 -55 24 -99 23 -92 28 -119 51 -280 15 -98 20 -483 9 -585
-15 -138 -18 -157 -46 -310 -24 -136 -95 -347 -175 -520 -211 -456 -621 -899
-1073 -1158 -148 -84 -427 -202 -538 -227 -12 -2 -49 -11 -82 -20 -94 -23
-273 -54 -366 -62 -161 -15 -518 -8 -649 13 -242 38 -445 94 -640 178 -84 37
-252 124 -300 156 -14 9 -45 30 -70 46 -25 16 -49 32 -55 36 -243 182 -391
321 -552 515 -54 65 -184 247 -196 273 -4 8 -16 29 -27 45 -79 122 -219 449
-245 571 -2 10 -13 55 -24 99 -23 92 -28 119 -51 280 -15 98 -20 483 -9 585
15 138 18 158 45 305 25 142 95 350 176 525 209 451 599 875 1056 1149 174
104 505 234 672 265 14 2 57 11 95 19 68 15 117 21 260 36 73 8 495 6 530 -2z"/>
<path d="M14601 8740 c-62 -33 -155 -84 -205 -114 -50 -29 -278 -160 -505
-291 -228 -131 -423 -247 -433 -259 -25 -30 -20 -94 21 -246 11 -41 34 -114
50 -161 36 -104 218 -560 257 -644 15 -33 28 -62 29 -65 1 -3 8 -21 17 -40 8
-19 39 -89 67 -154 l51 -119 -23 -31 c-54 -71 -152 -234 -213 -356 -36 -71
-71 -131 -77 -131 -7 -1 -23 -2 -37 -4 -14 -1 -47 -4 -75 -8 -27 -4 -75 -9
-105 -12 -96 -10 -154 -16 -180 -20 -27 -4 -116 -15 -165 -21 -60 -6 -123 -15
-146 -19 -13 -3 -44 -7 -69 -10 -25 -4 -67 -10 -95 -15 -27 -5 -63 -12 -80
-15 -49 -8 -85 -15 -183 -37 -52 -11 -99 -21 -105 -22 -53 -9 -182 -63 -207
-86 l-30 -28 0 -716 0 -715 34 -26 c54 -41 216 -90 426 -129 79 -14 107 -19
178 -30 43 -8 243 -36 282 -41 35 -4 126 -15 165 -21 31 -4 119 -13 178 -19
45 -5 82 -9 172 -20 11 -1 28 -3 37 -4 11 -1 31 -29 55 -78 52 -109 135 -252
204 -355 l59 -87 -51 -118 c-28 -65 -61 -138 -72 -163 -12 -25 -21 -47 -22
-50 0 -3 -11 -27 -24 -55 -12 -27 -68 -162 -122 -299 -189 -470 -247 -685
-201 -742 14 -16 391 -243 567 -340 22 -12 121 -69 220 -126 99 -58 216 -124
260 -149 44 -24 88 -48 97 -54 98 -56 119 -64 146 -54 25 10 207 187 262 255
14 17 78 96 143 175 141 171 114 138 267 334 148 190 153 197 225 297 l55 78
83 -7 c104 -9 339 -9 438 0 l77 7 108 -148 c60 -81 116 -156 126 -167 9 -11
62 -78 118 -150 126 -161 158 -201 191 -240 14 -16 34 -41 45 -54 111 -141
337 -374 373 -386 15 -4 48 9 113 46 51 29 111 62 133 74 44 24 124 69 167 94
60 35 324 188 367 212 25 14 77 44 115 67 37 23 69 42 71 42 3 0 252 146 292
171 59 37 53 123 -27 374 -28 86 -175 472 -215 560 -7 17 -36 84 -65 150 -28
66 -61 140 -72 165 -12 25 -36 80 -54 123 l-34 78 59 87 c76 113 165 268 207
360 18 39 39 72 46 73 16 1 46 4 123 13 57 7 84 10 191 21 25 2 63 7 83 9 20
3 74 10 121 16 47 6 103 13 125 16 22 3 83 12 135 20 123 20 137 22 185 29
177 27 429 100 482 141 l33 25 0 715 0 716 -30 28 c-49 46 -309 121 -504 146
-22 3 -43 7 -46 9 -3 2 -33 7 -65 10 -33 4 -62 9 -65 10 -3 2 -33 6 -65 10
-33 3 -67 8 -75 10 -8 2 -42 7 -75 10 -33 4 -85 10 -115 15 -30 5 -84 12 -120
15 -36 3 -78 8 -95 10 -16 2 -61 7 -100 11 -38 4 -79 8 -90 10 -11 1 -25 3
-32 3 -7 1 -35 49 -64 107 -53 109 -155 283 -213 364 -36 50 -36 51 -14 100
311 699 470 1125 484 1301 3 45 0 59 -16 76 -19 21 -149 101 -268 165 -31 17
-64 37 -73 44 -8 8 -19 14 -22 14 -4 0 -36 18 -72 40 -36 22 -68 40 -71 40 -3
0 -30 16 -60 35 -30 19 -56 35 -58 35 -3 0 -50 27 -106 60 -56 33 -104 60
-106 60 -2 0 -21 11 -42 23 -20 13 -64 39 -97 57 -33 18 -76 42 -95 53 -19 11
-70 37 -113 59 -73 37 -81 39 -109 27 -17 -7 -65 -49 -107 -93 -42 -44 -85
-90 -96 -101 -81 -85 -368 -430 -457 -550 -4 -5 -23 -29 -40 -51 -18 -23 -81
-107 -141 -187 l-107 -147 -83 7 c-104 9 -339 9 -439 0 l-76 -7 -76 104 c-91
125 -173 231 -323 416 -38 47 -80 101 -95 120 -15 19 -37 47 -50 61 -13 15
-41 48 -63 75 -169 204 -332 365 -370 364 -5 0 -61 -27 -124 -60z m1585 -2352
c5 -3 32 -9 59 -12 63 -9 210 -57 294 -97 172 -83 343 -224 473 -389 32 -41
63 -80 68 -87 5 -6 30 -51 56 -99 101 -191 143 -373 139 -609 -2 -146 -13
-222 -51 -351 -91 -316 -352 -623 -659 -773 -102 -50 -126 -59 -230 -87 -156
-42 -396 -52 -560 -25 -462 77 -871 441 -1001 891 -14 47 -27 101 -30 120 -2
19 -7 46 -11 60 -9 39 -12 304 -3 352 5 24 11 63 15 87 9 65 52 195 90 277 66
141 151 257 276 381 200 195 430 316 684 357 77 12 372 15 391 4z"/>
</g>
</svg>
